# xmcd CD database file
#
# Track frame offsets:
#	150
#	27426
#	48962
#	101805
#	128655
#	149736
#	193924
#	220503
#	251021
#
# Disc length: 3809 seconds
#
# Revision: 7
# Processed by: cddbd v1.5.1PL0 Copyright (c) Steve Scherf et al.
# Submitted via: CDex 1.51
#
DISCID=870edf09
DTITLE=Shiva's Quintessence - Cosmic Surfer [CD2)
DYEAR=2005
DGENRE=New Age
TTITLE0=Giants (incl. Annuaki/White Powder Gold)
TTITLE1=Cosmic Surfer
TTITLE2=Ganga Mai
TTITLE3=Oasis
TTITLE4=Sun
TTITLE5=Hail Mary (incl. Divine Mother Chant)
TTITLE6=Hallelujad
TTITLE7=Sri Ram Chant (incl. Hari Narayana Chant)
TTITLE8=Om Mane Padme Hum
EXTD=YEAR: 2005
EXTT0=
EXTT1=
EXTT2=
EXTT3=
EXTT4=
EXTT5=
EXTT6=
EXTT7=
EXTT8=
PLAYORDER=
